HIERARCHY
ROOT Hips
{
	OFFSET -14.64140 90.27770 -84.91600
	CHANNELS 6 Xposition Yposition Zposition Zrotation Xrotation Yrotation
	JOINT Spine
	{
		OFFSET 0.00000 13.20850 -1.60436
		CHANNELS 3 Zrotation Xrotation Yrotation
		JOINT Spine1
		{
			OFFSET 0.00000 8.61716 0.00000
			CHANNELS 3 Zrotation Xrotation Yrotation
			JOINT Spine2
			{
				OFFSET 0.00000 8.61717 0.00000
				CHANNELS 3 Zrotation Xrotation Yrotation
				JOINT Spine3
				{
					OFFSET 0.00000 8.61717 0.00000
					CHANNELS 3 Zrotation Xrotation Yrotation
					JOINT Neck
					{
						OFFSET 0.00000 11.07920 1.10792
						CHANNELS 3 Zrotation Xrotation Yrotation
						JOINT Neck1
						{
							OFFSET 0.00000 7.08032 0.00000
							CHANNELS 3 Zrotation Xrotation Yrotation
							JOINT Head
							{
								OFFSET 0.00000 7.08031 0.00000
								CHANNELS 3 Zrotation Xrotation Yrotation
								End site
								{
									OFFSET 0.00000 0.00000 0.00000
								}
							}
						}
					}
					JOINT RightShoulder
					{
						OFFSET -0.01000 7.91373 5.19711
						CHANNELS 3 Zrotation Xrotation Yrotation
						JOINT RightArm
						{
							OFFSET -18.41580 0.00000 0.00000
							CHANNELS 3 Zrotation Xrotation Yrotation
							JOINT RightForeArm
							{
								OFFSET -29.11090 0.00000 0.00000
								CHANNELS 3 Zrotation Xrotation Yrotation
								JOINT RightHand
								{
									OFFSET -24.65040 0.00000 0.00000
									CHANNELS 3 Zrotation Xrotation Yrotation
									JOINT RightHandThumb1
									{
										OFFSET -5.35114 -0.85590 3.97906
										CHANNELS 3 Zrotation Xrotation Yrotation
										JOINT RightHandThumb2
										{
											OFFSET -4.52789 0.00000 0.00000
											CHANNELS 3 Zrotation Xrotation Yrotation
											JOINT RightHandThumb3
											{
												OFFSET -2.46976 0.00000 0.00000
												CHANNELS 3 Zrotation Xrotation Yrotation
												End site
												{
													OFFSET 0.00000 0.00000 0.00000
												}
											}
										}
									}
									JOINT RightHandIndex1
									{
										OFFSET -14.26970 0.00000 2.88139
										CHANNELS 3 Zrotation Xrotation Yrotation
										JOINT RightHandIndex2
										{
											OFFSET -5.48836 0.00000 0.00000
											CHANNELS 3 Zrotation Xrotation Yrotation
											JOINT RightHandIndex3
											{
												OFFSET -3.01859 0.00000 0.00000
												CHANNELS 3 Zrotation Xrotation Yrotation
												End site
												{
													OFFSET 0.00000 0.00000 0.00000
												}
											}
										}
									}
									JOINT RightHandMiddle1
									{
										OFFSET -14.26970 0.00000 -0.09147
										CHANNELS 3 Zrotation Xrotation Yrotation
										JOINT RightHandMiddle2
										{
											OFFSET -6.17441 0.00000 0.00000
											CHANNELS 3 Zrotation Xrotation Yrotation
											JOINT RightHandMiddle3
											{
												OFFSET -3.56743 0.00000 0.00000
												CHANNELS 3 Zrotation Xrotation Yrotation
												End site
												{
													OFFSET 0.00000 0.00000 0.00000
												}
											}
										}
									}
									JOINT RightHandRing1
									{
										OFFSET -12.69180 0.00000 -3.06433
										CHANNELS 3 Zrotation Xrotation Yrotation
										JOINT RightHandRing2
										{
											OFFSET -5.62556 0.00000 0.00000
											CHANNELS 3 Zrotation Xrotation Yrotation
											JOINT RightHandRing3
											{
												OFFSET -3.56744 0.00000 0.00000
												CHANNELS 3 Zrotation Xrotation Yrotation
												End site
												{
													OFFSET 0.00000 0.00000 0.00000
												}
											}
										}
									}
									JOINT RightHandPinky1
									{
										OFFSET -11.11390 0.00000 -6.03719
										CHANNELS 3 Zrotation Xrotation Yrotation
										JOINT RightHandPinky2
										{
											OFFSET -4.52789 0.00000 0.00000
											CHANNELS 3 Zrotation Xrotation Yrotation
											JOINT RightHandPinky3
											{
												OFFSET -2.46976 0.00000 0.00000
												CHANNELS 3 Zrotation Xrotation Yrotation
												End site
												{
													OFFSET 0.00000 0.00000 0.00000
												}
											}
										}
									}
								}
							}
						}
					}
					JOINT LeftShoulder
					{
						OFFSET 0.01000 7.91373 5.19711
						CHANNELS 3 Zrotation Xrotation Yrotation
						JOINT LeftArm
						{
							OFFSET 18.41580 0.00000 0.00000
							CHANNELS 3 Zrotation Xrotation Yrotation
							JOINT LeftForeArm
							{
								OFFSET 29.11090 0.00000 0.00000
								CHANNELS 3 Zrotation Xrotation Yrotation
								JOINT LeftHand
								{
									OFFSET 24.65040 0.00000 0.00000
									CHANNELS 3 Zrotation Xrotation Yrotation
									JOINT LeftHandThumb1
									{
										OFFSET 5.35114 -0.85590 3.97906
										CHANNELS 3 Zrotation Xrotation Yrotation
										JOINT LeftHandThumb2
										{
											OFFSET 4.52789 0.00000 0.00000
											CHANNELS 3 Zrotation Xrotation Yrotation
											JOINT LeftHandThumb3
											{
												OFFSET 2.46977 0.00000 0.00000
												CHANNELS 3 Zrotation Xrotation Yrotation
												End site
												{
													OFFSET 0.00000 0.00000 0.00000
												}
											}
										}
									}
									JOINT LeftHandIndex1
									{
										OFFSET 14.26970 0.00000 2.88139
										CHANNELS 3 Zrotation Xrotation Yrotation
										JOINT LeftHandIndex2
										{
											OFFSET 5.48836 0.00000 0.00000
											CHANNELS 3 Zrotation Xrotation Yrotation
											JOINT LeftHandIndex3
											{
												OFFSET 3.01859 0.00000 0.00000
												CHANNELS 3 Zrotation Xrotation Yrotation
												End site
												{
													OFFSET 0.00000 0.00000 0.00000
												}
											}
										}
									}
									JOINT LeftHandMiddle1
									{
										OFFSET 14.26970 0.00000 -0.09147
										CHANNELS 3 Zrotation Xrotation Yrotation
										JOINT LeftHandMiddle2
										{
											OFFSET 6.17440 0.00000 0.00000
											CHANNELS 3 Zrotation Xrotation Yrotation
											JOINT LeftHandMiddle3
											{
												OFFSET 3.56744 0.00000 0.00000
												CHANNELS 3 Zrotation Xrotation Yrotation
												End site
												{
													OFFSET 0.00000 0.00000 0.00000
												}
											}
										}
									}
									JOINT LeftHandRing1
									{
										OFFSET 12.69180 0.00000 -3.06433
										CHANNELS 3 Zrotation Xrotation Yrotation
										JOINT LeftHandRing2
										{
											OFFSET 5.62556 0.00000 0.00000
											CHANNELS 3 Zrotation Xrotation Yrotation
											JOINT LeftHandRing3
											{
												OFFSET 3.56744 0.00000 0.00000
												CHANNELS 3 Zrotation Xrotation Yrotation
												End site
												{
													OFFSET 0.00000 0.00000 0.00000
												}
											}
										}
									}
									JOINT LeftHandPinky1
									{
										OFFSET 11.11390 0.00000 -6.03719
										CHANNELS 3 Zrotation Xrotation Yrotation
										JOINT LeftHandPinky2
										{
											OFFSET 4.52789 0.00000 0.00000
											CHANNELS 3 Zrotation Xrotation Yrotation
											JOINT LeftHandPinky3
											{
												OFFSET 2.46976 0.00000 0.00000
												CHANNELS 3 Zrotation Xrotation Yrotation
												End site
												{
													OFFSET 0.00000 0.00000 0.00000
												}
											}
										}
									}
								}
							}
						}
					}
					JOINT pCube4
					{
						OFFSET 0.00000 10.91090 1.10792
						CHANNELS 3 Zrotation Xrotation Yrotation
						End site
						{
							OFFSET 0.00000 0.00000 0.00000
						}
					}
				}
			}
		}
	}
	JOINT RightUpLeg
	{
		OFFSET -9.98441 0.00000 0.00000
		CHANNELS 3 Zrotation Xrotation Yrotation
		JOINT RightLeg
		{
			OFFSET 0.00000 -42.11790 0.00000
			CHANNELS 3 Zrotation Xrotation Yrotation
			JOINT RightFoot
			{
				OFFSET 0.00000 -45.00020 -0.00001
				CHANNELS 3 Zrotation Xrotation Yrotation
				JOINT RightForeFoot
				{
					OFFSET 0.00000 -3.74820 0.00000
					CHANNELS 3 Zrotation Xrotation Yrotation
					JOINT RightToeBase
					{
						OFFSET 0.00000 0.06325 14.43120
						CHANNELS 3 Zrotation Xrotation Yrotation
						End site
						{
							OFFSET 0.00000 0.00000 0.00000
						}
					}
				}
			}
		}
	}
	JOINT LeftUpLeg
	{
		OFFSET 9.98441 0.00000 0.00000
		CHANNELS 3 Zrotation Xrotation Yrotation
		JOINT LeftLeg
		{
			OFFSET 0.00000 -42.11800 0.00000
			CHANNELS 3 Zrotation Xrotation Yrotation
			JOINT LeftFoot
			{
				OFFSET 0.00000 -45.00070 0.00000
				CHANNELS 3 Zrotation Xrotation Yrotation
				JOINT LeftForeFoot
				{
					OFFSET 0.00000 -3.74824 0.00000
					CHANNELS 3 Zrotation Xrotation Yrotation
					JOINT LeftToeBase
					{
						OFFSET 0.00000 0.06325 14.43110
						CHANNELS 3 Zrotation Xrotation Yrotation
						End site
						{
							OFFSET 0.00000 0.00000 0.00000
						}
					}
				}
			}
		}
	}
}
MOTION
Frames: 4
Frame Time: 0.050000
0.02251895383752607 -0.045522624475186235 -0.039176417734051776 0.02766587270495241 0.006577611641142567 0.03391799532100582 -1.543194170552211 1.8403265188554985 -0.8965693821239855 -0.9456942265838512 3.9388707810729517 0.35249421922187785 -1.0403382171877305 -1.2970076084695352 -0.6289807020171199 0.7093801524080694 0.48264011857122924 -0.7569470103421994 0.04677393088041374 11.721613555469856 -1.100972094838209 0.15661857731980244 -1.0685941147687912 -4.325357297495226 0.6279848261702662 -16.629828298194813 -0.3729945557118626 -2.013633464232235 0.8906803444389907 -15.158220521471698 74.7572592756742 26.047178372872935 1.110745756605263 11.618929276557203 2.283639443140718 47.06523080964698 21.390686598986115 0.09637727320035439 -4.944374214810301 4.493104907535526 -0.17334106391383947 -1.6056236310982464 0.021585245956177685 -0.0042919562769436264 -56.21053509034792 0.022321666505946733 0.04805091501484221 -56.21833558295044 -38.79843146030151 0.026624430325051903 0.014741061433554027 -0.0005133611985668367 -0.03820501368590068 -0.02070423618337096 0.013728121464955917 -0.03220728430595942 -0.01118779831041607 -36.667776768195274 -0.01905447185804413 0.016226339519808744 -0.038169906954840974 0.018066044679022116 0.00039767294325513905 -0.006474779647740748 0.025642148480304036 0.012475435427919911 -19.717037601802843 0.013693938442398202 0.0436235100300501 0.022993038162591975 -0.021294306163792895 -0.017542158147857395 -0.025492768185047095 -0.021648022722764764 0.020192427924927387 24.083656468255185 -0.039082588041516056 0.030344940247663217 28.875354076312075 0.0070918527767801 -0.031741935845473294 28.89247119977766 0.018718063515115353 -0.0014155061203493693 3.580455523192578 1.0846725131670831 13.724240008247293 -69.97746325734553 34.705255553966374 -6.631927661768626 -4.033427819116278 -3.2147274325897044 -95.53099745816155 -14.58268803085213 -4.781406290200848 2.964400448668581 -0.47566105531819575 0.03715594120547308 -8.114905816416679 0.0072606681510792226 -0.014491425084045492 44.58268884540021 0.03417859563505477 0.035758250989728894 44.550200570383915 12.442511885130937 -0.03351436060480477 0.02747448464008137 -0.015832026331989758 -0.0015372391304551848 0.03816642677711486 -0.039913954831843367 0.04619204860346312 -0.03639993813513025 11.130035140763122 0.021965383969252673 -0.007089008963137885 0.037372388651020966 0.04913604709564505 0.014869209321784186 -0.02517008099927165 -0.044260040593627585 0.021052071342949685 4.8024083564642925 0.023117980628309148 0.04987449682434749 0.034442262340386935 -0.010860781828215947 -0.04615206586167833 0.04559282982443317 -0.016111948108955682 0.01957478859043886 -5.581994121877803 -0.03948446153098197 -0.021380379881653925 -6.720296818070301 0.008122509027134787 0.0017949426416057532 -6.735618253281543 -0.03924249833087771 0.046485418533359864 0.043664104162781804 0.011712660626247248 -0.02757835820917953 8.064921570348808 3.4779475472320542 -19.24516080081027 -0.04986862621147151 10.345910600827896 -0.018169065990143698 -5.601652480252873 -15.642885214768771 3.234140632588652 0.025729342424087854 0.007351836228875872 -0.030545262326705423 0.02274118376248375 4.6720979980592094 0.03020208332848347 12.490768024728924 -8.246708704106815 6.887006480645789 -0.026954901220292468 46.39346183430093 -0.029160938953323598 -4.33723357446716 -14.779373272927469 -3.859627639574911 0.011377834254773588 -0.01338033982938971 0.004867727077837583 0.010313872106205978 -10.695777043301206 -0.04984001621459579 
0.04206273883432926 -0.001788353756043002 -0.01957397551322326 0.0069960536034292435 -0.02619450520167432 -0.04316691718711687 -1.3496006930717543 1.6804461149554222 -0.9439293990263763 -0.9266854307850775 3.9042566419386624 0.37223191104812176 -1.020600131947064 -1.3769426199077315 -0.7062235774466794 0.7285251850996984 0.4051856984395965 -0.7442933970245037 0.14108999541525225 11.679615335666103 -1.2853856907200925 0.1905371084381261 -0.929564814635035 -4.848717332776457 0.7601572903258856 -16.475705949787034 -0.4177850649127462 -2.2753495551340386 0.9794511399717755 -15.296014168449734 75.08185363275241 25.916402789783668 0.7518222791222371 12.372717860306889 2.7692336728475886 46.89639490733663 21.807559350522062 0.08013882152534227 -4.90496676389517 4.488335166613399 -0.11105249679261729 -1.6003747799678791 0.026642847101858984 0.0034782977273662497 -56.23959988760897 0.042991306448351856 0.014829301652629032 -56.19070614108702 -38.817844656338785 -0.013417832987315585 0.02928778948250154 -0.04515029640368469 0.021601157814199544 -0.037572186415440544 0.023496655398559173 -0.04663840828546477 0.002443611458630231 -36.67650336451933 -0.03331768055442038 -0.021556774633047622 0.034789551886119714 -0.045054867288441595 -0.003079781190737606 0.01838664808279378 -0.023447959794356515 0.03659836461274899 -19.749769244971926 0.007099371970405559 0.008332616462979402 0.01450732544035267 -0.03840476301367632 -0.0433075771220729 0.031015778570377413 0.04284377534534539 0.04496937252926691 24.0599312754403 -0.031184194665311853 0.0005709163891862999 28.842203762541264 -0.044088677515997494 0.003713050000536155 28.882186271558744 0.030124791149019264 -0.0020229500576176103 3.556668531501091 1.0470593307177751 13.67468523128189 -70.35246316627172 35.373324596157616 -5.62527994683691 -3.699827201100056 -4.008160120422909 -96.27994703234056 -14.48566606781019 -4.94630614308965 2.5982956590531083 -0.48742858737406974 0.11363677431194277 -8.155747430524196 0.028400616295701977 -0.0007663755908467277 44.5888614684751 0.03678564744318546 -0.02088852246076394 44.61557545200131 12.410168960142235 0.0004270875517301776 0.017928892956817696 0.03719180309559537 0.04838228027176896 -0.031240997449101308 -0.04041813357650334 -0.003365127959583498 -0.025370744328761845 11.099868756559554 -0.04269959583144423 -0.007208855689735434 -0.03297128747468595 0.009404446424969137 -0.015652688889087923 0.021811896090735097 -0.04284592880399047 0.0025875760738758944 4.743887377008335 0.015062778061982784 -0.026858505226519853 0.005984770186958291 -0.02830594619930528 0.023730161923521047 -0.004751739509346182 0.014123298127456618 0.0042161096654799645 -5.629414407791777 0.024026180043675596 -0.034984990167192 -6.713324990812343 0.03430808406051033 0.0014575521791102902 -6.722142260637765 0.010991179439740184 0.025366840879487387 0.007103834686337005 0.02868852129356036 -0.019869604597071117 8.0080971253286 3.47772201239769 -19.192070645982625 -0.018834933404743334 10.440571430602718 -0.00023901018697338947 -5.598284974527141 -15.696740340783336 3.1910778651854947 -0.003285868780045545 -0.016783799950825594 -0.03670811629245215 -0.028384706275106298 4.73542517181019 -0.01847319150948011 12.475046905484975 -8.213636224095216 6.915211449051852 0.021841525622816764 46.36325922131301 -0.02479936004522938 -4.310673912024831 -14.734585159930168 -3.837429622137249 -0.042838852186108195 -0.014098162523389931 0.02506887721536224 0.02332355180350542 -10.704082975455378 0.023517201389046925 
0.043102723218181184 0.03284398948773129 0.01848033373508409 0.005316986829180349 -0.03922330249395106 -0.00825153107163972 -1.3232179173241752 1.48990926268961 -0.9872391156830886 -0.884633669602163 3.852257080898539 0.32960861347658094 -1.0476905507464804 -1.4459616366234844 -0.7536199681649941 0.6722722433975209 0.43211079494752186 -0.7645861945126244 0.21144927572170913 11.749223790641487 -1.37573151353646 0.2126501166691096 -0.856869567734948 -4.81583062071778 0.8171743931138858 -16.305935576036394 -0.44156164391449715 -2.388419592952918 0.9953936871681578 -15.30222177828676 75.3470181768338 25.992794371731783 0.21110629375126574 12.967004380745456 3.3086432629333142 46.483987824895024 22.145931316957082 0.09224716756591285 -4.94148785827953 4.560085675727483 -0.13484845134270929 -1.5731937673777086 -0.007890306113662506 0.038636001818494185 -56.20482000189153 -0.03986265303365987 0.02473057702081659 -56.211992000474936 -38.80217703428713 -0.008674861408225478 -0.01632657385586301 0.042974688858163815 -0.007904063446692868 -0.03972613028259358 0.0072071193243668855 -0.002533698154203304 -0.028709349808841357 -36.73623085743006 -0.03107957335405395 0.03823756489189653 0.012604456426049428 0.04845670270648105 0.02604662398330812 -0.00856844352799544 -0.0006208142813301377 0.014186921084604705 -19.744903756416203 -0.030323849256760477 -0.014663545442659581 -0.005225770022046975 -0.03692247640553609 -0.017640481527601868 0.022488776256872525 0.024412827897844856 0.0473845923954152 24.055383597178412 -0.005674811684651309 0.01909498396999853 28.87573683528494 -0.017594074733748164 0.0039098278877202665 28.84069560406095 -0.0248250062148642 -0.04432425795126879 3.6676695897839333 1.0791829171316838 13.724753147887514 -70.6845923136078 35.908395643380075 -4.780592298855262 -3.7502667681080433 -4.676356446120025 -96.79444593142152 -14.036558748159559 -4.85542580746727 2.1195215426625107 -0.4553418691036168 0.05671978745917972 -8.170788813925391 0.010901904743235118 0.02349996524056148 44.52879992266804 -0.04753128853686472 -0.034791411495845866 44.554141856921 12.464306365177046 -0.011598447433739263 0.02748669815420809 0.028378381502940957 0.025019668901024028 0.03549742210211765 0.02846007527973518 -0.03384448278518602 0.03312851150129331 11.101206757771724 0.036688508727446244 -0.012016138173478663 0.005094753691178913 0.031428708556511954 0.004764392754796898 0.04113029032008132 -0.041413682330718106 -0.032141481555858074 4.778405192867056 -0.04217104483000458 0.017186624019643926 -0.02328325389544538 -0.026985860723255276 0.003818185418378835 -0.018550755439752254 0.033257465212168935 0.027544069374168555 -5.648348188490365 -0.019714012732441784 -0.034219989308557616 -6.674308920165998 0.005105821590597149 -0.02918481009110304 -6.7191467256118145 -0.003353256865532421 0.025800869322856922 -0.010300367622167447 0.005300272741695158 0.004835491120580412 8.091649784230395 3.477256996406482 -19.241677311406132 0.005723058448352619 10.419146507631654 0.035441631973172544 -5.594617151328492 -15.651820297035918 3.199928140695789 0.016401794742911455 0.00825831531567234 -0.035620358366141885 -0.005296442325933044 4.739642671768466 0.016991697240952307 12.434479533437798 -8.264087075831242 6.851137747876235 -0.033316574357792096 46.36650325178208 -0.007849111448135881 -4.347943934248474 -14.713711373754949 -3.878709013094317 0.010719177547895012 0.0494383983115482 -0.0053721060631635 -0.006277408279754791 -10.718668009155756 0.027555376490055378 
0.02639615462848399 0.03628456185810893 -0.00021110308500864674 -0.028767614079587916 0.0024718422212731375 0.009767575073602833 -1.3780130675082192 1.3212394088417443 -0.9416171326479372 -0.891001927369568 3.8140524668558924 0.39675533877979774 -1.04242461339929 -1.4767732415582961 -0.7099368615982427 0.6607832575913276 0.4368330573248409 -0.784459948287196 0.23265915309293766 11.949952006106535 -1.2789241159621676 0.27239888020212577 -0.7014043760064512 -4.585005418771556 0.8507197498934909 -16.073423066995264 -0.403276275770167 -2.5379164331511066 1.061112165054724 -15.330898850638306 75.56000016127432 26.146360728311333 -0.21093588738109098 13.529622645188962 3.6573480098335707 46.40875491303457 22.28189285347428 0.014975216038613452 -4.899119193850715 4.504142346485591 -0.1418591145059912 -1.5898298871854888 -0.017379296033790924 -0.02240652721926181 -56.21523537814268 0.04127604337323451 0.009428460945398372 -56.23985049971338 -38.8108002119642 0.01655947859620474 0.027366257463823675 0.009627897301691111 -0.019717585473494892 0.0199459520775117 0.014162855322371708 0.03249103865159006 0.029801587316897735 -36.69156387178835 0.03894066109498417 0.0168235506582666 0.01345294930380556 0.025184520196595214 0.03308364980972982 -0.010659098711293497 0.03402671118005559 -0.04442581686704387 -19.777236311934058 -0.03765505491604302 0.030874704652897288 -0.014274118986920265 0.008963057813777766 -0.007489608126175789 -0.013386426722687268 0.035405459302475566 0.033069873035400967 24.05827118948867 0.044492544224519454 -0.022521462494491617 28.9009539296499 -0.04213367711536347 0.008667624504980397 28.908791121626894 -0.048908492418882794 0.0007396537595042864 3.8604159223561973 1.1590935027503297 13.713516480327852 -70.96608780470383 36.1709223177467 -4.5055360416530945 -3.5461453363814255 -5.431949464909799 -97.68111969925823 -12.963193256060709 -4.609720073577922 1.3200911212778033 -0.43115493152390794 0.02595573684862123 -8.158634081378194 0.042452329177717005 -0.006188903243607488 44.56112952703872 0.000340308455720591 0.025112336557340464 44.59879932787867 12.451117970025555 0.004762674236230211 -0.023581385311385792 -0.016857139183194522 -0.012267113173603112 0.02210925338051043 0.024166358043502006 -0.0075186071962742495 -0.023665213450872715 11.114016033468454 0.014829429587282086 -0.009647636522116473 -0.04048435724576583 -0.01682472620064333 0.02485045347750573 -0.026338422506569144 -0.003116323660267202 -0.01689481413025357 4.764753628036938 0.04127372276550562 -0.015939249942549805 -0.012321459765644601 -0.00873933321130019 0.0034042812902645592 0.021905503175884272 0.01476267205477602 -0.04324519852744175 -5.590362957932659 -0.044589868920262496 -0.0035212276318004887 -6.701558629829023 0.04834814962983281 0.03336578837431677 -6.7093733493683345 0.04940986962344525 -0.017392500285234088 -0.028772202456477193 0.02496620812963123 0.019776828594990196 8.047269796525669 3.509618782563531 -19.23900109170758 0.04977349089650777 10.390487490220403 0.012977454598488479 -5.651534019490784 -15.668126758410562 3.1692945266274504 0.021994365287449604 0.03750693382056761 0.003535340074781847 0.011317690654421802 4.6843353381151225 0.03096916894720188 12.500395550734002 -8.197087511860513 6.889089912736627 0.01927602273656828 46.41554096052405 -0.027682473762825854 -4.282018525963079 -14.79344605734025 -3.832067918625832 0.035530974293919444 -0.018686010552417347 0.039384991464681836 0.04373820368146182 -10.766992653576551 0.02993030049808485 
